/* XPM */
static char * argoneum32_xpm[] = {
"32 32 244 2",
"  	c None",
". 	c #465F93",
"+ 	c #476095",
"@ 	c #435D93",
"# 	c #B1BBD2",
"$ 	c #586C97",
"% 	c #476096",
"& 	c #455D90",
"* 	c #465F94",
"= 	c #7282A4",
"- 	c #425782",
"; 	c #455F94",
"> 	c #5B719E",
", 	c #415B91",
"' 	c #D4D7DC",
") 	c #385082",
"! 	c #405A91",
"~ 	c #40598D",
"{ 	c #5B719F",
"] 	c #6478A2",
"^ 	c #475F95",
"/ 	c #435B8D",
"( 	c #677BA6",
"_ 	c #6578A2",
": 	c #6277A3",
"< 	c #CFD3DB",
"[ 	c #415A8F",
"} 	c #415A91",
"| 	c #E2E6ED",
"1 	c #FFFFFF",
"2 	c #344D7F",
"3 	c #486196",
"4 	c #7082A8",
"5 	c #677593",
"6 	c #445D92",
"7 	c #3A507F",
"8 	c #476094",
"9 	c #5F729B",
"0 	c #606F8D",
"a 	c #435B8F",
"b 	c #476196",
"c 	c #445D93",
"d 	c #425C91",
"e 	c #465F95",
"f 	c #3F5990",
"g 	c #5A709F",
"h 	c #C2CADB",
"i 	c #9AA6C0",
"j 	c #40598F",
"k 	c #3D5381",
"l 	c #486094",
"m 	c #4E6698",
"n 	c #9FA9BE",
"o 	c #455E94",
"p 	c #466095",
"q 	c #8091B5",
"r 	c #EAEDF2",
"s 	c #7182A5",
"t 	c #D2D8E4",
"u 	c #627295",
"v 	c #3E588F",
"w 	c #3E5483",
"x 	c #EDEEF0",
"y 	c #39507F",
"z 	c #445D91",
"A 	c #BAC0CE",
"B 	c #5D6B89",
"C 	c #7689AF",
"D 	c #8898B8",
"E 	c #415A8E",
"F 	c #D3D9E5",
"G 	c #FEFEFF",
"H 	c #BFC4CD",
"I 	c #D1D6E0",
"J 	c #ECEEF2",
"K 	c #AAB4CA",
"L 	c #526896",
"M 	c #3F5584",
"N 	c #486095",
"O 	c #3B5388",
"P 	c #3E588E",
"Q 	c #BBC4D6",
"R 	c #F8F8F9",
"S 	c #5A6B90",
"T 	c #ABB2C1",
"U 	c #546383",
"V 	c #A6AFC5",
"W 	c #3F588D",
"X 	c #4C6496",
"Y 	c #FAFBFC",
"Z 	c #C6CCDA",
"` 	c #FDFDFE",
" .	c #D7DBE3",
"..	c #425A8D",
"+.	c #8998BA",
"@.	c #909DBA",
"#.	c #465F92",
"$.	c #D0D5DE",
"%.	c #3D558B",
"&.	c #E1E5EC",
"*.	c #EFEFF0",
"=.	c #374F80",
"-.	c #6378A4",
";.	c #8F9DBC",
">.	c #929DB6",
",.	c #9CA2B1",
"'.	c #4E5E81",
").	c #314675",
"!.	c #324979",
"~.	c #334979",
"{.	c #273F71",
"].	c #8C98B0",
"^.	c #435A8B",
"/.	c #3E527D",
"(.	c #3C568D",
"_.	c #FEFEFE",
":.	c #828EA7",
"<.	c #F3F5F7",
"[.	c #F3F3F4",
"}.	c #455576",
"|.	c #435C93",
"1.	c #93A1BF",
"2.	c #FDFDFC",
"3.	c #3C5383",
"4.	c #425B92",
"5.	c #C3C9D7",
"6.	c #4F5F80",
"7.	c #F5F7F9",
"8.	c #495778",
"9.	c #7B8CB1",
"0.	c #8394B6",
"a.	c #8495B6",
"b.	c #B8C1D4",
"c.	c #7F8CA7",
"d.	c #395288",
"e.	c #304776",
"f.	c #ABB5CB",
"g.	c #A1A7B5",
"h.	c #667AA6",
"i.	c #FCFCFC",
"j.	c #BBC0CC",
"k.	c #425B90",
"l.	c #E4E8EF",
"m.	c #556486",
"n.	c #F8F9FA",
"o.	c #E1E2E5",
"p.	c #BABEC8",
"q.	c #BABFCA",
"r.	c #B7BCC7",
"s.	c #FBFCFC",
"t.	c #E1E3E6",
"u.	c #3A5285",
"v.	c #7587AE",
"w.	c #374B77",
"x.	c #7083AB",
"y.	c #9299A9",
"z.	c #324978",
"A.	c #425A8F",
"B.	c #385188",
"C.	c #F5F6F8",
"D.	c #EEEFF1",
"E.	c #374E80",
"F.	c #455D91",
"G.	c #E5E7EC",
"H.	c #384D7A",
"I.	c #6F82A9",
"J.	c #E9EAEC",
"K.	c #2D4474",
"L.	c #435D94",
"M.	c #3D588F",
"N.	c #F6F6F9",
"O.	c #E6E7E9",
"P.	c #384F82",
"Q.	c #3C5488",
"R.	c #96A1B8",
"S.	c #5A6B8F",
"T.	c #40598E",
"U.	c #F8F8FA",
"V.	c #ECEDF0",
"W.	c #C0C8D7",
"X.	c #C5CCDC",
"Y.	c #7283A5",
"Z.	c #C3C7CF",
"`.	c #3F578B",
" +	c #667AA3",
".+	c #A6AEBF",
"++	c #455D93",
"@+	c #61749C",
"#+	c #FAFAFB",
"$+	c #8691A7",
"%+	c #8A94A7",
"&+	c #466094",
"*+	c #3D578E",
"=+	c #E9ECF0",
"-+	c #536690",
";+	c #3D5485",
">+	c #6F7D9C",
",+	c #707D99",
"'+	c #3D4F77",
")+	c #7B8BAD",
"!+	c #F3F4F6",
"~+	c #526793",
"{+	c #486096",
"]+	c #4A6295",
"^+	c #FDFDFD",
"/+	c #A3AAB6",
"(+	c #42598D",
"_+	c #3F5483",
":+	c #405990",
"<+	c #C5CBD8",
"[+	c #A5AFC5",
"}+	c #5B709D",
"|+	c #3C558C",
"1+	c #3B558D",
"2+	c #566D9C",
"3+	c #9DAAC5",
"4+	c #ECEDEE",
"5+	c #364A75",
"6+	c #3D5280",
"7+	c #D9DDE4",
"8+	c #F4F5F6",
"9+	c #425377",
"0+	c #3E568A",
"a+	c #B0B8C9",
"b+	c #D0D3D8",
"c+	c #3C4F75",
"d+	c #486197",
"e+	c #5D6F94",
"f+	c #C2C7D1",
"g+	c #D3D6DB",
"h+	c #6E7A92",
"i+	c #364D7D",
"j+	c #425A8B",
"k+	c #617193",
"l+	c #78849F",
"m+	c #7A859F",
"n+	c #657392",
"o+	c #3C4F78",
"p+	c #3A5183",
"q+	c #364970",
"r+	c #435A8D",
"s+	c #3D5281",
"t+	c #3F5583",
"u+	c #3E5482",
"                                                                ",
"        . + @ # $ % + + + + + + + + + + + + + + + + + &         ",
"      + + + * = - % + + ; > * + + + + + + + + + + + + + +       ",
"    + + + + + % + + + + , ' ) + + + + + + + + + + + + + + +     ",
"  . + + + + + + + + + * ! ~ + { ] ^ + + + + + + + + + + + + /   ",
"  + + + + ( _ + + + + : < [ } | 1 2 + + + + + + + + + + + + 3   ",
"  + + + + 4 5 + + + + 6 7 8 + 9 0 a + + + + + + + + + + + + b   ",
"  + + + + + + c d + + + e f + g h i j + + + + + + + + + + + + k ",
"  + + + l * m 1 n o + p q r s t 1 1 u v * + + + + + + + + + + w ",
"  + + v x y z A B C D E F G H I 1 1 1 J K L o + + + + + + + + M ",
"  + + N O . + P Q 1 1 R S T U 1 1 1 1 1 1 1 V W + + + + + + + M ",
"  + + e e + + X 1 1 1 1 Y Z ` 1 1 1 1 1 1 1 1  ...+ + + + + + M ",
"  + ; +.@.6 + #.1 1 1 1 1 1 1 1 1 1 1 1 1 1 1 1 $.%.+ + + + + M ",
"  + } &.*.=.-.;.>.1 1 1 1 1 ,.'.).!.~.~.{.1 1 1 1 ].e + + + + M ",
"  + + ^./.(._.1 :.<.1 1 [.}.a b + + + |.1.1 1 1 1 2.3.+ + + + M ",
"  + + + + 4.5.1 6.7.1 1 8.+ + 6 9.0.a.b.1 1 1 1 1 1 c.% + + + M ",
"  + + + + + d.e.f.1 1 g...+ h.i.1 1 1 1 1 1 1 1 1 1 j.k.+ + + M ",
"  + + + + * l.1 1 1 1 m.b , n.1 1 o.p.q.r.s.1 1 1 1 t.u.+ + + M ",
"  + + + + v.1 1 1 1 1 w.+ x.1 1 y.z.E A.B.C.1 1 1 1 D.E.+ + + M ",
"  + + + + F.G.1 1 1 1 H.+ I.1 J.K.L.e + M.N.1 1 1 1 O.P.+ + + M ",
"  + + + + + Q.R.1 1 1 S.b T.U.V.W.X.Y.+ M.N.1 1 1 1 Z.`.+ + + M ",
"  + + + + + +  +1 1 1 .++++ @+#+1 1 $+b M.N.1 1 1 1 %+&++ + + M ",
"  + + + + + + *+=+1 1 1 -+3 + ;+>+,+- % M.N.1 1 1 1 '+% + + + M ",
"  + + + + + + % )+1 1 1 !+~+* + {+{+% e ]+^+1 1 1 /+(++ + + + _+",
"  + + + + + + + :+<+1 1 1 1 [+}+|+1+2+3+1 1 1 1 4+5++ + + + + 6+",
"  + + + + + + + + ~ 7+1 1 1 1 1 1 1 1 1 1 1 1 8+9++ + + + + b   ",
"  + + + + + + + + + 0+a+1 1 1 1 1 1 1 1 1 1 b+c++ + + + + + d+  ",
"  & + + + + + + + + + k.e+f+1 1 1 1 1 1 g+h+i+% + + + + + + j+  ",
"    + + + + + + + + + + {+[ y k+l+m+n+o+p++ + + + + + + + d+    ",
"      + + + + + + + + + + + + b {+3 3 % + + + + + + + + d+q+    ",
"        r+3 b + + + + + + + + + + + + + + + + + + b d+j+        ",
"              s+w M t+_+_+_+_+_+_+_+_+_+_+t+M u+6+              "};
