/* XPM */
static char * C:\Users\HOME\Desktop\GWAY\Core\pow_images\share\pixmaps\argoneum32_xpm[] = {
"32 32 305 2",
"  	c None",
". 	c #77B255",
"+ 	c #6FA552",
"@ 	c #6CA050",
"# 	c #6B9E50",
"$ 	c #6DA151",
"% 	c #77B155",
"& 	c #7AB756",
"* 	c #71A852",
"= 	c #517144",
"- 	c #354438",
"; 	c #303B36",
"> 	c #344238",
", 	c #364638",
"' 	c #303A36",
") 	c #2D3635",
"! 	c #364439",
"~ 	c #4C6A42",
"{ 	c #6FA451",
"] 	c #7BB957",
"^ 	c #6C9F50",
"/ 	c #4C6B42",
"( 	c #334137",
"_ 	c #354437",
": 	c #2C3534",
"< 	c #2F3935",
"[ 	c #374738",
"} 	c #374839",
"| 	c #2C3434",
"1 	c #292F33",
"2 	c #272C32",
"3 	c #262932",
"4 	c #435A3E",
"5 	c #6A9C4F",
"6 	c #78B456",
"7 	c #465F40",
"8 	c #344237",
"9 	c #364538",
"0 	c #2E3835",
"a 	c #354337",
"b 	c #364738",
"c 	c #313C36",
"d 	c #282E33",
"e 	c #2A3134",
"f 	c #476240",
"g 	c #7AB857",
"h 	c #72A953",
"i 	c #3D503B",
"j 	c #2F3A35",
"k 	c #3A4C3B",
"l 	c #72A853",
"m 	c #292E33",
"n 	c #2C3334",
"o 	c #2E3735",
"p 	c #313D36",
"q 	c #2B3334",
"r 	c #2E3734",
"s 	c #2E3635",
"t 	c #2F3836",
"u 	c #73AB54",
"v 	c #78B455",
"w 	c #41583E",
"x 	c #344337",
"y 	c #3B4D3B",
"z 	c #3B4E3B",
"A 	c #3C4E3A",
"B 	c #354538",
"C 	c #344338",
"D 	c #374838",
"E 	c #2F3835",
"F 	c #2F3936",
"G 	c #38493A",
"H 	c #4E6E43",
"I 	c #334036",
"J 	c #699B4E",
"K 	c #73AE50",
"L 	c #73AF51",
"M 	c #75AF54",
"N 	c #4F7044",
"O 	c #486541",
"P 	c #74AD53",
"Q 	c #72AE50",
"R 	c #6A9D4F",
"S 	c #4B6741",
"T 	c #7DBB57",
"U 	c #2B3234",
"V 	c #689A4E",
"W 	c #ABD194",
"X 	c #FFFFFD",
"Y 	c #FAFDF8",
"Z 	c #A9CF94",
"` 	c #76B552",
" .	c #425A3E",
"..	c #394B39",
"+.	c #42593D",
"@.	c #79B755",
"#.	c #A4CC8D",
"$.	c #FAFEF7",
"%.	c #FFFFFF",
"&.	c #B6D7A2",
"*.	c #68984F",
"=.	c #262A32",
"-.	c #66964E",
";.	c #4D6D42",
">.	c #2A3133",
",.	c #394B3A",
"'.	c #73AE51",
").	c #FDFFFA",
"!.	c #4D5256",
"~.	c #717577",
"{.	c #FEFFFD",
"].	c #7EB65D",
"^.	c #71A752",
"/.	c #76B155",
"(.	c #6FA551",
"_.	c #7DB65D",
":.	c #F3FBEF",
"<.	c #828688",
"[.	c #4C5154",
"}.	c #83BC61",
"|.	c #71A853",
"1.	c #272B32",
"2.	c #323F37",
"3.	c #2D3535",
"4.	c #39493A",
"5.	c #F6FCF2",
"6.	c #7E8184",
"7.	c #959799",
"8.	c #7AB358",
"9.	c #77B355",
"0.	c #7BB45A",
"a.	c #F3FAEF",
"b.	c #A1A4A5",
"c.	c #7B7E81",
"d.	c #81BA60",
"e.	c #3E533C",
"f.	c #73AC54",
"g.	c #4D6D43",
"h.	c #313E37",
"i.	c #74AE54",
"j.	c #9FC987",
"k.	c #FDFEFD",
"l.	c #FDFEFC",
"m.	c #94C37A",
"n.	c #75B153",
"o.	c #76B254",
"p.	c #93C278",
"q.	c #ABD097",
"r.	c #79B656",
"s.	c #2A3033",
"t.	c #527345",
"u.	c #78B355",
"v.	c #374638",
"w.	c #2D3735",
"x.	c #486540",
"y.	c #74B152",
"z.	c #78B356",
"A.	c #78B256",
"B.	c #42593E",
"C.	c #323D37",
"D.	c #7EBE58",
"E.	c #70A752",
"F.	c #282D32",
"G.	c #4F6E44",
"H.	c #79B556",
"I.	c #4A6542",
"J.	c #72AB53",
"K.	c #6EA351",
"L.	c #2C3435",
"M.	c #3E513D",
"N.	c #2B3034",
"O.	c #699A4F",
"P.	c #293033",
"Q.	c #628E4C",
"R.	c #65944E",
"S.	c #2C3535",
"T.	c #323D36",
"U.	c #66954E",
"V.	c #2B3434",
"W.	c #6EA64C",
"X.	c #74AF52",
"Y.	c #76B154",
"Z.	c #6EA74C",
"`.	c #76B055",
" +	c #354238",
".+	c #2B3134",
"++	c #3A4D3A",
"@+	c #334037",
"#+	c #466040",
"$+	c #649A43",
"%+	c #71AB4F",
"&+	c #75AF53",
"*+	c #659C44",
"=+	c #7AB656",
"-+	c #42583E",
";+	c #2A3034",
">+	c #699B4F",
",+	c #3E533B",
"'+	c #4A6641",
")+	c #73B051",
"!+	c #73B050",
"~+	c #7FB75E",
"{+	c #7FB75F",
"]+	c #78B357",
"^+	c #73AF50",
"/+	c #476140",
"(+	c #303A35",
"_+	c #364639",
":+	c #282E32",
"<+	c #37413C",
"[+	c #7FBC5B",
"}+	c #84BA64",
"|+	c #98C87D",
"1+	c #B0D799",
"2+	c #C4E4B1",
"3+	c #CBE8B9",
"4+	c #CAE8B8",
"5+	c #C5E4B2",
"6+	c #B2D89B",
"7+	c #9AC87E",
"8+	c #7CB859",
"9+	c #3E4E3E",
"0+	c #7FBF58",
"a+	c #4F6F44",
"b+	c #252A30",
"c+	c #A3C293",
"d+	c #B4DA9D",
"e+	c #B9DDA3",
"f+	c #BFE0AB",
"g+	c #C6E5B3",
"h+	c #C7E6B5",
"i+	c #C7E5B4",
"j+	c #BFE1AB",
"k+	c #B9DDA4",
"l+	c #B3D99D",
"m+	c #A8C995",
"n+	c #36413A",
"o+	c #537545",
"p+	c #596659",
"q+	c #C7E6B4",
"r+	c #CAE9B6",
"s+	c #70846B",
"t+	c #75AE54",
"u+	c #647464",
"v+	c #CEEEB9",
"w+	c #CBEAB7",
"x+	c #6F826A",
"y+	c #2F3A34",
"z+	c #252B30",
"A+	c #505C53",
"B+	c #A9C39B",
"C+	c #C9E8B5",
"D+	c #C7E6B3",
"E+	c #C8E8B5",
"F+	c #AECA9F",
"G+	c #60715D",
"H+	c #2E3934",
"I+	c #313B36",
"J+	c #4C6942",
"K+	c #262B32",
"L+	c #2D3436",
"M+	c #424C48",
"N+	c #84987D",
"O+	c #BEDBAC",
"P+	c #CDEEB9",
"Q+	c #CCECB8",
"R+	c #CBEBB8",
"S+	c #CDEDB9",
"T+	c #C0DFAF",
"U+	c #8CA382",
"V+	c #4B584C",
"W+	c #354139",
"X+	c #303B35",
"Y+	c #4F6E43",
"Z+	c #7BBA57",
"`+	c #3D513B",
" @	c #23282E",
".@	c #1E222B",
"+@	c #303738",
"@@	c #47534A",
"#@	c #546453",
"$@	c #4B5A4C",
"%@	c #38443C",
"&@	c #27302E",
"*@	c #2B3531",
"=@	c #78B556",
"-@	c #73AB53",
";@	c #313C37",
">@	c #2D3434",
",@	c #303935",
"'@	c #74AD54",
")@	c #3D513C",
"!@	c #3C4E3B",
"~@	c #507044",
"{@	c #7CBA57",
"]@	c #455E3F",
"^@	c #2B3133",
"/@	c #323C36",
"(@	c #445C3F",
"_@	c #67974E",
":@	c #7BB857",
"<@	c #577B47",
"[@	c #364539",
"}@	c #567B46",
"|@	c #68994F",
"                        . + @ # # $ + %                         ",
"                  & * = - ; > , ' ) ; ! ~ { ]                   ",
"                ^ / ( _ : < [ , } | 1 1 2 3 4 5                 ",
"            6 7 8 9 , , 0 a , , b c 1 1 1 1 d e f g             ",
"          h i 2 j b , , | j b , b | 1 1 1 1 1 1 2 k h           ",
"        l c m ) n o p q ) q r p q s q 1 1 1 1 1 1 m t u         ",
"      v w m x [ b y z A B [ o 1 C [ D E F z G 1 1 1 1 k .       ",
"      H I o [ - J K L M N , ( n b , - O P L Q R | 1 1 2 S T     ",
"    @ } ( U , V W X Y Z `  .o ) ..( +.@.#.$.%.&.*.=.1 1 =.-.    ",
"  & ;.x >.1 ,.'.).!.~.{.].+ ^./.% u (._.:.<.[.X }.G 1 1 1  ..   ",
"  |.1.p 2.3.4.'.5.6.7.{.8.9.9.. . . 9.0.a.b.c.).d.e.1 1 1 1 f.  ",
"  g.h., , b ' i.j.k.l.m.n.. . . . . . o.p.k.%.q.r.U 1 1 1 s.t.  ",
"u.! v., , b w.x.y.z.. n.. . . . . . . . n.n.A.K B.2 1 1 U ' C.D.",
"E.c C., , 9 F.G.& . . . . . . . . . . . . . . H.I.2 1 1 c p 1 J.",
"K.p 1 o 0 L.k . . . . . . . . . . . . . . . . . & M.d w.c p N.O.",
"K...> P.) B Q.. . . . . . . . . . . . . . . . . . R.S.T.c p U U.",
"K...b V.x 9 H.. . . . . z.W.X.. . Y.Z.z.. . . . . `. +c c p .+-.",
"(.++b n @+#+& . . . . . 6 $+%+. . &+*+z.. . . . . =+-+; c p ;+>+",
"h ,+h.1 U '+& . . . . n.)+!+z.~+{+]+^+)+n.. . . . r./+(+c c d u ",
"6 _+d 1 :+<+[+n.z._.}+|+1+2+3+4+4+3+5+6+7+}+].z.n.8+9+; c E C.0+",
"  a+2 1 1 b+c+d+e+f+g+h+i+g+g+g+g+g+g+i+h+g+j+k+l+m+n+c c U o+  ",
"  h =.1 1 1 p+q+g+g+g+g+g+g+g+g+g+g+g+g+g+g+g+g+r+s+; c c e t+  ",
"  g /+d 1 1 F.u+v+g+g+g+g+g+g+g+g+g+g+g+g+g+g+w+x+y+c c E 4 .   ",
"    ^ U 1 1 1 z+A+B+q+C+q+g+g+g+g+g+g+D+C+E+F+G+H+c c I+F.U.    ",
"      J+K+1 1 1 :+L+M+N+O+P+Q+w+w+R+S+T+U+V+W+X+c c c s.Y+]     ",
"      Z+`+m 1 1 1 1 :+ @.@+@@@#@#@$@%@&@*@X+c c c c 3.y =@      ",
"        -@;@m 1 1 1 1 1 >@I+c c c c c c c c c c c 3.,@'@        ",
"          M )@2 1 >.3.' p c c c c c c c c c c ; 1 !@i.          ",
"            z.~@2 < c c c c c c c c c c c c o :+= 6             ",
"              {@>+]@n ^@o ; c p /@c ; o s.e (@_@:@              ",
"                  . M <@[@m 1 1 1 1 d - }@`..                   ",
"                        D.`.^ O.|@^ `.D.                        "};
