/* XPM */
static char * argoneum64_xpm[] = {
"64 64 511 2",
"  	c None",
". 	c #435B8D",
"+ 	c #445C8F",
"@ 	c #445C90",
"# 	c #455D90",
"$ 	c #455E91",
"% 	c #455D91",
"& 	c #445D90",
"* 	c #435B8E",
"= 	c #435A8C",
"- 	c #465F93",
"; 	c #476095",
"> 	c #4A6295",
", 	c #919FBD",
"' 	c #435B8C",
") 	c #465F94",
"! 	c #476096",
"~ 	c #42598B",
"{ 	c #476094",
"] 	c #445D93",
"^ 	c #BAC3D6",
"/ 	c #FFFFFF",
"( 	c #A0A8BB",
"_ 	c #41588A",
": 	c #415889",
"< 	c #465E92",
"[ 	c #466095",
"} 	c #7182A6",
"| 	c #DCDFE4",
"1 	c #56627E",
"2 	c #415888",
"3 	c #465E93",
"4 	c #354B7A",
"5 	c #3D5482",
"6 	c #455D92",
"7 	c #8090B4",
"8 	c #6C7EA4",
"9 	c #486194",
"0 	c #FEFDFD",
"a 	c #304674",
"b 	c #475F94",
"c 	c #415A8F",
"d 	c #8C98B1",
"e 	c #6C778F",
"f 	c #3A4E7B",
"g 	c #475F95",
"h 	c #405787",
"i 	c #455E93",
"j 	c #435C92",
"k 	c #486196",
"l 	c #455F94",
"m 	c #3D578E",
"n 	c #465F95",
"o 	c #455E92",
"p 	c #ADB7CE",
"q 	c #C1C9D9",
"r 	c #556994",
"s 	c #415B91",
"t 	c #40598F",
"u 	c #788BB0",
"v 	c #F9FAFB",
"w 	c #6F7FA1",
"x 	c #A4AFC8",
"y 	c #E4E6EA",
"z 	c #354C7B",
"A 	c #466094",
"B 	c #486197",
"C 	c #D3D8E4",
"D 	c #D4D8E2",
"E 	c #3A5182",
"F 	c #8D9BB8",
"G 	c #7B869B",
"H 	c #405889",
"I 	c #ACB6CC",
"J 	c #ECEDEF",
"K 	c #2D416C",
"L 	c #476196",
"M 	c #3F598E",
"N 	c #F8F9FA",
"O 	c #F9F9F9",
"P 	c #2F436C",
"Q 	c #40588C",
"R 	c #3C4F77",
"S 	c #344973",
"T 	c #475D8C",
"U 	c #C6CBD6",
"V 	c #D9DCE1",
"W 	c #556079",
"X 	c #3D5280",
"Y 	c #3B507C",
"Z 	c #3E5482",
"` 	c #35476D",
" .	c #3F5584",
"..	c #3B5282",
"+.	c #324673",
"@.	c #3E5381",
"#.	c #3F5685",
"$.	c #445C8E",
"%.	c #5F739F",
"&.	c #8493B4",
"*.	c #61749E",
"=.	c #3F588C",
"-.	c #425B91",
";.	c #586E9C",
">.	c #3F588D",
",.	c #435D92",
"'.	c #445C92",
").	c #B6C0D4",
"!.	c #BBC2D1",
"~.	c #3B5284",
"{.	c #E9ECF1",
"].	c #D6DBE3",
"^.	c #6479A4",
"/.	c #C2CADA",
"(.	c #BEC6D6",
"_.	c #5A6D96",
":.	c #798AAF",
"<.	c #78869F",
"[.	c #445B8E",
"}.	c #4E6698",
"|.	c #576C9B",
"1.	c #7A8AAF",
"2.	c #566686",
"3.	c #445D91",
"4.	c #596E9D",
"5.	c #435781",
"6.	c #AAB4CA",
"7.	c #B3B9C4",
"8.	c #3B507E",
"9.	c #3C568B",
"0.	c #445D92",
"a.	c #3E588F",
"b.	c #EEF1F5",
"c.	c #425681",
"d.	c #4D6392",
"e.	c #304266",
"f.	c #415A91",
"g.	c #3F588F",
"h.	c #435C91",
"i.	c #9DAAC4",
"j.	c #818BA0",
"k.	c #A6AFC3",
"l.	c #E6E9EE",
"m.	c #AFB8CC",
"n.	c #6C7EA3",
"o.	c #3B5488",
"p.	c #A3ADC2",
"q.	c #C0C4CD",
"r.	c #32456C",
"s.	c #4A5E86",
"t.	c #79849B",
"u.	c #374567",
"v.	c #374D7C",
"w.	c #8F9DBC",
"x.	c #D0D6E2",
"y.	c #E1E4EB",
"z.	c #C2C9D8",
"A.	c #6C7EA2",
"B.	c #3F578C",
"C.	c #8493B3",
"D.	c #636F87",
"E.	c #9FA9BE",
"F.	c #F6F6F8",
"G.	c #99A5BD",
"H.	c #3F5788",
"I.	c #3F578A",
"J.	c #374D7B",
"K.	c #425A8B",
"L.	c #DEE2EA",
"M.	c #A4AEC0",
"N.	c #344A7A",
"O.	c #C9CED9",
"P.	c #B7BBC4",
"Q.	c #23365E",
"R.	c #DCE0E8",
"S.	c #FBFBFC",
"T.	c #8391AE",
"U.	c #3C5487",
"V.	c #BEC6D8",
"W.	c #818CA5",
"X.	c #2E4574",
"Y.	c #4C5C7F",
"Z.	c #445373",
"`.	c #273A64",
" +	c #96A1BA",
".+	c #D0D5DF",
"++	c #445987",
"@+	c #4B6395",
"#+	c #C7CDD9",
"$+	c #8895B1",
"%+	c #8A98B4",
"&+	c #D1D7E1",
"*+	c #F2F3F6",
"=+	c #51648C",
"-+	c #6C7FA7",
";+	c #FCFCFC",
">+	c #56688E",
",+	c #445E93",
"'+	c #546B9A",
")+	c #5B709C",
"!+	c #41598E",
"~+	c #6377A0",
"{+	c #485C84",
"]+	c #7E8FB3",
"^+	c #96A0B7",
"/+	c #41598B",
"(+	c #F8F8F8",
"_+	c #F5F5F6",
":+	c #F5F6F6",
"<+	c #FDFDFE",
"[+	c #E6E8EC",
"}+	c #384E7C",
"|+	c #425C91",
"1+	c #CAD1DE",
"2+	c #E8EAED",
"3+	c #314674",
"4+	c #425C92",
"5+	c #3C568D",
"6+	c #E6E7E9",
"7+	c #8B93A2",
"8+	c #4F5B76",
"9+	c #2C3D61",
"0+	c #2A3D64",
"a+	c #2B3F66",
"b+	c #2C3F68",
"c+	c #22355F",
"d+	c #A4ABBC",
"e+	c #3E5687",
"f+	c #8392B0",
"g+	c #989EAC",
"h+	c #384D79",
"i+	c #4D6497",
"j+	c #CBD2DF",
"k+	c #F6F7F9",
"l+	c #CCD1DE",
"m+	c #405580",
"n+	c #96A0B5",
"o+	c #EBECEE",
"p+	c #606A7F",
"q+	c #27395E",
"r+	c #3B4F7B",
"s+	c #455C8F",
"t+	c #455D8F",
"u+	c #516285",
"v+	c #536488",
"w+	c #576581",
"x+	c #2E426A",
"y+	c #CFD5E2",
"z+	c #CFD3DB",
"A+	c #2B416F",
"B+	c #F4F5F7",
"C+	c #B1B5BF",
"D+	c #273759",
"E+	c #3C517F",
"F+	c #9FACC5",
"G+	c #C8CCD5",
"H+	c #384F7E",
"I+	c #445B8D",
"J+	c #3C568C",
"K+	c #FFFEFE",
"L+	c #2A3E67",
"M+	c #C4CAD8",
"N+	c #9DA2AE",
"O+	c #293B61",
"P+	c #6B7EA6",
"Q+	c #4D5E80",
"R+	c #D6DAE4",
"S+	c #D5D7DC",
"T+	c #2A3E68",
"U+	c #C6CDDA",
"V+	c #B9BDC5",
"W+	c #293B60",
"X+	c #425B92",
"Y+	c #415B90",
"Z+	c #405990",
"`+	c #435B90",
" @	c #98A5C0",
".@	c #A8AEBD",
"+@	c #3E5585",
"@@	c #4D618D",
"#@	c #D6D9E1",
"$@	c #D6D8DC",
"%@	c #3D4C69",
"&@	c #394F7E",
"*@	c #F0F0F2",
"=@	c #2B3A5B",
"-@	c #405788",
";@	c #5E739F",
">@	c #A5B1C8",
",@	c #C8CFDD",
"'@	c #CCD2DF",
")@	c #CBD1DF",
"!@	c #D6DBE5",
"~@	c #314571",
"{@	c #384E7E",
"]@	c #30446D",
"^@	c #384F7F",
"/@	c #ACB6CB",
"(@	c #6C7589",
"_@	c #3B507D",
":@	c #526181",
"<@	c #3E578D",
"[@	c #596D99",
"}@	c #C0C8D8",
"|@	c #EEEFF0",
"1@	c #27385D",
"2@	c #E2E6EE",
"3@	c #828CA0",
"4@	c #42598A",
"5@	c #455E94",
"6@	c #7889AF",
"7@	c #F2F3F7",
"8@	c #9AA0AD",
"9@	c #B4BED2",
"0@	c #A7AEBB",
"a@	c #3C5382",
"b@	c #5D729F",
"c@	c #606B83",
"d@	c #506798",
"e@	c #E2E3E6",
"f@	c #8B92A2",
"g@	c #6B768C",
"h@	c #69748C",
"i@	c #69758D",
"j@	c #6A758D",
"k@	c #647088",
"l@	c #E7E8EC",
"m@	c #C3C7CF",
"n@	c #364C7A",
"o@	c #A9B4CB",
"p@	c #3E4D6C",
"q@	c #92A0BE",
"r@	c #888F9E",
"s@	c #26365B",
"t@	c #415788",
"u@	c #3A5184",
"v@	c #E0E3EA",
"w@	c #D0D2D9",
"x@	c #334874",
"y@	c #A8B2C9",
"z@	c #314265",
"A@	c #B0BACE",
"B@	c #9097A5",
"C@	c #2F4269",
"D@	c #3F588E",
"E@	c #E0E3EB",
"F@	c #D2D4DA",
"G@	c #324772",
"H@	c #5C6F99",
"I@	c #324467",
"J@	c #AFB9CE",
"K@	c #F1F1F2",
"L@	c #27375A",
"M@	c #E0E3EC",
"N@	c #C9CCD3",
"O@	c #334873",
"P@	c #435B8F",
"Q@	c #7785A2",
"R@	c #F3F4F5",
"S@	c #425273",
"T@	c #909EBA",
"U@	c #A1A6B2",
"V@	c #374C77",
"W@	c #B4B9C2",
"X@	c #374C79",
"Y@	c #334875",
"Z@	c #394A6E",
"`@	c #64718B",
" #	c #4D6391",
".#	c #A8ADB9",
"+#	c #7685A4",
"@#	c #7C8CAF",
"##	c #7B8CAF",
"$#	c #7385AA",
"%#	c #425B8F",
"&#	c #9198A7",
"*#	c #3D5381",
"=#	c #3B5388",
"-#	c #E8EAEF",
";#	c #9DA4B4",
">#	c #B2BACC",
",#	c #E2E4E8",
"'#	c #344977",
")#	c #636E85",
"!#	c #B2BACD",
"~#	c #EFF0F2",
"{#	c #314572",
"]#	c #3E5586",
"^#	c #E1E3E9",
"/#	c #DDDFE2",
"(#	c #2F446F",
"_#	c #314164",
":#	c #6F80A5",
"<#	c #75809A",
"[#	c #3D5281",
"}#	c #B9BFCC",
"|#	c #E2E4E7",
"1#	c #2F436F",
"2#	c #CACDD3",
"3#	c #3C5489",
"4#	c #F2F3F5",
"5#	c #3B5384",
"6#	c #4C5D80",
"7#	c #969EAF",
"8#	c #BCC1CA",
"9#	c #C1C4CD",
"0#	c #A0A6B2",
"a#	c #57647E",
"b#	c #3B517F",
"c#	c #6E788C",
"d#	c #97A3BB",
"e#	c #BEC3CF",
"f#	c #384F80",
"g#	c #384E7D",
"h#	c #364B78",
"i#	c #405887",
"j#	c #E0E4EC",
"k#	c #F3F3F4",
"l#	c #29395D",
"m#	c #A2ABBD",
"n#	c #3A5285",
"o#	c #3D578D",
"p#	c #DFE2EA",
"q#	c #7D8595",
"r#	c #3A4F7B",
"s#	c #808EAB",
"t#	c #B4BBCA",
"u#	c #3C5383",
"v#	c #3F598F",
"w#	c #91A0BD",
"x#	c #E1E3E6",
"y#	c #28395E",
"z#	c #3C5488",
"A#	c #CCD2DC",
"B#	c #ECEEF1",
"C#	c #7080A1",
"D#	c #3B5387",
"E#	c #6074A0",
"F#	c #D7DCE7",
"G#	c #45516B",
"H#	c #425886",
"I#	c #F3F4F6",
"J#	c #E6E8EE",
"K#	c #98A4BE",
"L#	c #60739D",
"M#	c #40588B",
"N#	c #3A548A",
"O#	c #3B558B",
"P#	c #3D568C",
"Q#	c #596E9B",
"R#	c #8D9BBA",
"S#	c #D5DAE4",
"T#	c #7B8293",
"U#	c #354973",
"V#	c #435A8B",
"W#	c #50638B",
"X#	c #FCFCFD",
"Y#	c #FDFDFD",
"Z#	c #9CA1AD",
"`#	c #2C3F66",
" $	c #405685",
".$	c #52648B",
"+$	c #F8F8F9",
"@$	c #9AA0AC",
"#$	c #2B3C63",
"$$	c #445882",
"%$	c #E0E3E8",
"&$	c #757E8F",
"*$	c #2D4067",
"=$	c #33456B",
"-$	c #384F7D",
";$	c #9FA7B9",
">$	c #DDDFE3",
",$	c #44516C",
"'$	c #364973",
")$	c #486297",
"!$	c #3F5688",
"~$	c #4D5E83",
"{$	c #C4C8D2",
"]$	c #F1F1F3",
"^$	c #7A8294",
"/$	c #293A5F",
"($	c #395080",
"_$	c #4C5C80",
":$	c #A4ABBA",
"<$	c #EFF0F3",
"[$	c #C6C9D0",
"}$	c #6D778B",
"|$	c #293A5D",
"1$	c #3F5586",
"2$	c #304571",
"3$	c #49597A",
"4$	c #7A859B",
"5$	c #9FA6B5",
"6$	c #BABEC8",
"7$	c #C8CCD3",
"8$	c #CACED4",
"9$	c #C1C5CD",
"0$	c #ABB0BC",
"a$	c #8991A2",
"b$	c #5D6881",
"c$	c #2B3C60",
"d$	c #354A76",
"e$	c #344875",
"f$	c #394E7C",
"g$	c #3E5483",
"h$	c #42588A",
"i$	c #2A3857",
"j$	c #2A3856",
"k$	c #304165",
"l$	c #3F5585",
"                                                                                                                                ",
"                          . + @ # # $ $ % % % % % % % % % % % % % % % % % % % % % % % % % % # & + * =                           ",
"                  + - ; ; ; > , ' ) ; ; ; ; ; ; ; ; ; ; ; ; ; ; ; ; ; ; ; ; ; ; ; ; ; ; ; ; ; ; ; ; ; ; ! - ~                   ",
"                { ; ; ; ; ] ^ / ( _ ; ; ; ; ; ; ; ; ; ; ; ; ; ; ; ; ; ; ; ; ; ; ; ; ; ; ; ; ; ; ; ; ; ; ; ; ; ! :               ",
"            < ; ; ; ; ; ; [ } | 1 2 ; ; ; ; ; ; ; ; ; ; ; ; ; ; ; ; ; ; ; ; ; ; ; ; ; ; ; ; ; ; ; ; ; ; ; ; ; ; ; <             ",
"          3 ; ; ; ; ; ; ; ; @ 4 5 6 ; ; ; ; ; ; ; ] 7 8 @ ; ; ; ; ; ; ; ; ; ; ; ; ; ; ; ; ; ; ; ; ; ; ; ; ; ; ; ; ; )           ",
"        < ; ; ; ; ; ; ; ; ; ; ; ; ; ; ; ; ; ; ; ; 9 / 0 a b ; ; ; ; ; ; ; ; ; ; ; ; ; ; ; ; ; ; ; ; ; ; ; ; ; ; ; ; ; <         ",
"        ; ; ; ; ; ; ; ; ; ; ; ; ; ; ; ; ; ; ; ; ; c d e f b ; ; ; ; ; ; ; ; ; ; ; ; ; ; ; ; ; ; ; ; ; ; ; ; ; ; ; ; ; ; 2       ",
"      { ; ; ; ; ; ; ; ; ; ; ; ; ; ; ; ; ; ; ; ; ; g . h # ; ; i j ; ; ; ; ; ; ; ; ; ; ; ; ; ; ; ; ; ; ; ; ; ; ; ; ; ; ; k       ",
"    + ; ; ; ; ; ; ; ; ; ; ; ; ; ; ; ; ; ; ; ; l m i n ; ; ; o p q r o ; ; ; ; ; ; ; ; ; ; ; ; ; ; ; ; ; ; ; ; ; ; ; ; ; ; :     ",
"    - ; ; ; ; ; ; ; ; s t ; ; ; ; ; ; ; ; ; ; u v w & ; ; l x / / y z A ; ; ; ; ; ; ; ; ; ; ; ; ; ; ; ; ; ; ; ; ; ; ; ; ; B     ",
"    ; ; ; ; ; ; ; ; s C D E A ; ; ; ; ; ; ; n F / G H ; ; i I / / J K - ; ; ; ; ; ; ; ; ; ; ; ; ; ; ; ; ; ; ; ; ; ; ; ; ; L     ",
"    ; ; ; ; ; ; ; ; M N O P i ; ; ; ; ; ; ; ; Q R S + ; ; ; T U V W X { ; ; ; ; ; ; ; ; ; ; ; ; ; ; ; ; ; ; ; ; ; ; ; ; ; ; Y   ",
"  . ; ; ; ; ; ; ; ; b Z `  .) ; ; ; ; ; ; ; ; g < 3 { ; ; ; - ..+.@.$ ; ; ; ; ; ; ; ; ; ; ; ; ; ; ; ; ; ; ; ; ; ; ; ; ; ; ; #.  ",
"  $.; ; ; ; ; ; ; ; ; ) $ ) ; ; ; ; ; ; ; ; ; ; ; ; ; ; ; ; ; s %.&.*.=.) ; ; ; ; ; ; ; ; ; ; ; ; ; ; ; ; ; ; ; ; ; ; ; ; ; =   ",
"  + ; ; ; ; ; ; ; ; ; ; ; ; -.;.>.) ; ; ; ; ; ; ; ; ,.'.; ; s )./ / / !.~.) ; ; ; ; ; ; ; ; ; ; ; ; ; ; ; ; ; ; ; ; ; ; ; ; %   ",
"  # ; ; ; ; ; ; ; ; ; ; ; i {./ ].E ) ; ; ; ; ; ) ^./.(._.% :./ / / / / <.[.; ; ; ; ; ; ; ; ; ; ; ; ; ; ; ; ; ; ; ; ; ; ; ; )   ",
"  # ; ; ; ; ; ; }.|.% ; ; 1./ / / 2.3.; ; ; ; ; 4./ / / / 5.6./ / / / / 7.8.9.0.; ; ; ; ; ; ; ; ; ; ; ; ; ; ; ; ; ; ; ; ; ; ;   ",
"  $ ; ; ; ; ; a.b./ c.< ; d./ / O e.+ f.g.h.; ) i./ / / / j.k./ / / / / / / l.m.n.o.i ; ; ; ; ; ; ; ; ; ; ; ; ; ; ; ; ; ; ; B   ",
"  $ ; ; ; ; ; -.p.q.r.o ; o s.t.u.v.w.x.y.z.A.B.C./ / / / D.E./ / / / / / / / / / F.G.H.o ; ; ; ; ; ; ; ; ; ; ; ; ; ; ; ; ; B   ",
"  % ; ; ; ; ; g I.J.: ) ; ; o . K.L./ / / / / M.N.O./ / P.Q.R./ / / / / / / / / / / / S.T.U.) ; ; ; ; ; ; ; ; ; ; ; ; ; ; ; B   ",
"  % ; ; ; ; ; ; ; g ; ; ; ; ; j V./ / / / / / / W.X.Y.Z.`. +/ / / / / / / / / / / / / / / .+++< ; ; ; ; ; ; ; ; ; ; ; ; ; ; B   ",
"  % ; ; ; ; ; ; ; ; ; ; ; ; ; @+/ / / / / / / / / #+$+%+&+/ / / / / / / / / / / / / / / / / *+=+% ; ; ; ; ; ; ; ; ; ; ; ; ; B   ",
"  % ; ; ; ; ; ; ; ; ; ; ; ; ; -+/ / / / / / / / / / / / / / / / / / / / / / / / / / / / / / / ;+>+% ; ; ; ; ; ; ; ; ; ; ; ; B   ",
"  % ; ; ; ; ,+'+)+!+g ; ; ; ; ~+/ / / / / / / / / / / / / / / / / / / / / / / / / / / / / / / / S.{+o ; ; ; ; ; ; ; ; ; ; ; B   ",
"  % ; ; ; [ ]+/ / ^+/+; ; ; ; I.N / / / / / / / / / / / / / / / / (+_+_+_+_+_+_+:+_+<+/ / / / / / [+}+) ; ; ; ; ; ; ; ; ; ; B   ",
"  % ; ; ; |+1+/ / 2+3+b ; 4+5+>.T./ / / / / / / / / / / / 6+7+8+9+0+a+b+b+b+b+b+b+c+y / / / / / / / d+e+g ; ; ; ; ; ; ; ; ; B   ",
"  % ; ; ; ) f+/ / g+h+- i+j+k+l+m+n+/ / / / / / / / / o+p+q+r+: s+6 o o o o o o 3 t+/ / / / / / / / / u+% ; ; ; ; ; ; ; ; ; B   ",
"  % ; ; ; ; Q v+w+x+' s y+/ / / z+A+B+/ / / / / / / C+D+E++ ) ; ; ; ; ; ; ; ; ; ,+F+/ / / / / / / / / G+H+[ ; ; ; ; ; ; ; ; B   ",
"  % ; ; ; ; g % I+% ) J+K+/ / / / L+M+/ / / / / / N+O+: ) ; ; ; ; ; ; ; ; ; ; i P+/ / / / / / / / / / / Q+% ; ; ; ; ; ; ; ; B   ",
"  % ; ; ; ; ; ; ; ; ; M R+/ / / S+T+U+/ / / / / V+W+~ ) ; ; ; ; l X+-.Y+Y+Z+`+ @/ / / / / / / / / / / / .@+@; ; ; ; ; ; ; ; B   ",
"  % ; ; ; ; ; ; ; ; ; { @@#@/ $@%@&@v / / / / *@=@-@) ; ; ; s ;@>@,@'@'@)@!@/ / / / / / / / / / / / / / _+~@- ; ; ; ; ; ; ; B   ",
"  % ; ; ; ; ; ; ; ; ; ; < {@]@P ^@/@/ / / / / (@_@- ; ; ; o q / / / / / / / / / / / / / / / / / / / / / / :@t+; ; ; ; ; ; ; B   ",
"  % ; ; ; ; ; ; ; ; ; ; n <@I+[@}@/ / / / / |@1@$.; ; ; h.2@/ / / / / / / / / / / / / / / / / / / / / / / 3@4@; ; ; ; ; ; ; B   ",
"  % ; ; ; ; ; ; ; ; ; 5@6@7@/ / / / / / / / 8@h+) ; ; ] 9@/ / / / / / / / / / / / / / / / / / / / / / / / 0@a@; ; ; ; ; ; ; B   ",
"  % ; ; ; ; ; ; ; ; ; b@/ / / / / / / / / / c@h ; ; ; d@/ / / / / / e@f@g@h@i@j@j@k@l@/ / / / / / / / / / m@n@; ; ; ; ; ; ; B   ",
"  % ; ; ; ; ; ; ; ; ) o@/ / / / / / / / / / p@I+; ; ; q@/ / / / / r@s@Y t@~ ~ ~ ~ u@v@/ / / / / / / / / / w@x@b ; ; ; ; ; ; B   ",
"  % ; ; ; ; ; ; ; ; ) y@/ / / / / / / / / / z@& ; ; 5@A@/ / / / B@C@= ) ; ; ; ; ; D@E@/ / / / / / / / / / F@G@{ ; ; ; ; ; ; B   ",
"  % ; ; ; ; ; ; ; ; ; H@/ / / / / / / / / / I@% ; ; i J@/ / / K@L@~ ) ; ; ; ; ; ; M M@/ / / / / / / / / / N@O@{ ; ; ; ; ; ; B   ",
"  % ; ; ; ; ; ; ; ; ; P@Q@R@/ / / / / / / / S@& ; ; ; T@/ / / U@V@3 ; ; ; ; ; ; ; M M@/ / / / / / / / / / W@X@b ; ; ; ; ; ; B   ",
"  % ; ; ; ; ; ; ; ; ; ; * Y@Z@/ / / / / / / `@. ; ; ;  #/ / / .#+#@#@###$#%#; ; ; M M@/ / / / / / / / / / &#*#; ; ; ; ; ; ; B   ",
"  % ; ; ; ; ; ; ; ; ; ; ; - =#-#/ / / / / / ;#+@; ; ; c >#/ / / / / / / ,#'#b ; ; M M@/ / / / / / / / / / )#2 ; ; ; ; ; ; ; B   ",
"  % ; ; ; ; ; ; ; ; ; ; ; ; 0.!#/ / / / / / ~#{#- ; ; ; ]#^#/ / / / / / /#(#) ; ; M M@/ / / / / / / / / / _#I+; ; ; ; ; ; ; B   ",
"  % ; ; ; ; ; ; ; ; ; ; ; ; ; :#/ / / / / / / <#* ; ; ; - [#}#/ / / / / |#1#) ; ; M M@/ / / / / / / / / 2#P o ; ; ; ; ; ; ; B   ",
"  % ; ; ; ; ; ; ; ; ; ; ; ; ; 3#*+/ / / / / / 4#h+i ; ; ; - 5#6#7#8#9#0#a#b#{ ; ; M M@/ / / / / / / / / c#Z ; ; ; ; ; ; ; ; B   ",
"  % ; ; ; ; ; ; ; ; ; ; ; ; ; i d#/ / / / / / / e#f#) ; ; ; { % -@g#h#_@i#% ; ; ; M j#/ / / / / / / / k#l#[.; ; ; ; ; ; ; ; B   ",
"  # ; ; ; ; ; ; ; ; ; ; ; ; ; ; H.N / / / / / / / m#n#) ; ; ; ; ; ; b { ; ; ; ; ; o#p#/ / / / / / / / q#r#) ; ; ; ; ; ; ; ; L   ",
"  & ; ; ; ; ; ; ; ; ; ; ; ; ; ; o s#/ / / / / / / / t#u#- ; ; ; ; ; ; ; ; ; ; ; v#w#/ / / / / / / / x#y#* ; ; ; ; ; ; ; ; ; {   ",
"  + ; ; ; ; ; ; ; ; ; ; ; ; ; ; ; z#A#/ / / / / / / / B#C#D#3 ; ; ; ; ; ; ; Z+E#F#/ / / / / / / / / G#Z ) ; ; ; ; ; ; ; ; ; <   ",
"  * ; ; ; ; ; ; ; ; ; ; ; ; ; ; ; ) H#I#/ / / / / / / / / J#K#L#M#N#O#P#Q#R#S#/ / / / / / / / / / T#U#$ ; ; ; ; ; ; ; ; ; ; .   ",
"  V#; ; ; ; ; ; ; ; ; ; ; ; ; ; ; ; 3 W#X#/ / / / / / / / / / / / Y#S./ / / / / / / / / / / / / Z#`#[.; ; ; ; ; ; ; ; ; ; ;  $  ",
"    ; ; ; ; ; ; ; ; ; ; ; ; ; ; ; ; ; % .$+$/ / / / / / / / / / / / / / / / / / / / / / / / / @$#$K.) ; ; ; ; ; ; ; ; ; ; ; Y   ",
"    ! ; ; ; ; ; ; ; ; ; ; ; ; ; ; ; ; ; % $$%$/ / / / / / / / / / / / / / / / / / / / / / / &$*$K.) ; ; ; ; ; ; ; ; ; ; ; ! =$  ",
"    - ; ; ; ; ; ; ; ; ; ; ; ; ; ; ; ; ; ; < -$;$/ / / / / / / / / / / / / / / / / / / / >$,$'$* ) ; ; ; ; ; ; ; ; ; ; ; ; )$    ",
"    ~ ; ; ; ; ; ; ; ; ; ; ; ; ; ; ; ; ; ; ; ) !$~${$/ / / / / / / / / / / / / / / / ]$^$/$Z $ ; ; ; ; ; ; ; ; ; ; ; ; ; ; =     ",
"      ! ; ; ; ; ; ; ; ; ; ; ; ; ; ; ; ; ; ; ; g % ($_$:$<$/ / / / / / / / / / / [$}$|$r#* ) ; ; ; ; ; ; ; ; ; ; ; ; ; ; L z@    ",
"      : ; ; ; ; ; ; ; ; ; ; ; ; ; ; ; ; ; ; ; ; ; ; % 1$2$3$4$5$6$7$8$9$0$a$b$c$]@Z [.) ; ; ; ; ; ; ; ; ; ; ; ; ; ; ; ; V#      ",
"        $ ; ; ; ; ; ; ; ; ; ; ; ; ; ; ; ; ; ; ; ; ; ; ; ) % K.+@}+d$e$d$f$g$h$+ 3 ; ; ; ; ; ; ; ; ; ; ; ; ; ; ; ; ; ; k         ",
"          - ; ; ; ; ; ; ; ; ; ; ; ; ; ; ; ; ; ; ; ; ; ; ; ; ; ; { b { b { ; ; ; ; ; ; ; ; ; ; ; ; ; ; ; ; ; ; ; ; ; B i$        ",
"            < ; ; ; ; ; ; ; ; ; ; ; ; ; ; ; ; ; ; ; ; ; ; ; ; ; ; ; ; ; ; ; ; ; ; ; ; ; ; ; ; ; ; ; ; ; ; ; ; ; ; k j$          ",
"              h B ; ; ; ; ; ; ; ; ; ; ; ; ; ; ; ; ; ; ; ; ; ; ; ; ; ; ; ; ; ; ; ; ; ; ; ; ; ; ; ; ; ; ; ; ; ; k K.              ",
"                  2 B L ; ; ; ; ; ; ; ; ; ; ; ; ; ; ; ; ; ; ; ; ; ; ; ; ; ; ; ; ; ; ; ; ; ; ; ; ; ; ; ; ! )$= k$                ",
"                        Y l$~ % - ; B B B B B B B B B B B B B B B B B B B B B B B B B B B B L b o = #.r+=$                      ",
"                                                                                                                                "};
