/* XPM */
static char * C:\Users\HOME\Desktop\GWAY\Core\pow_images\share\pixmaps\argoneum64_xpm[] = {
"64 64 523 2",
"  	c None",
". 	c #77B255",
"+ 	c #77B355",
"@ 	c #78B355",
"# 	c #79B556",
"$ 	c #7AB857",
"% 	c #7BB957",
"& 	c #72A953",
"* 	c #67984E",
"= 	c #608D4C",
"- 	c #5D874A",
"; 	c #5D864A",
"> 	c #618D4C",
", 	c #68984E",
"' 	c #73AB53",
") 	c #7CBB57",
"! 	c #7BB857",
"~ 	c #78B456",
"{ 	c #76B055",
"] 	c #6B9E50",
"^ 	c #608B4B",
"/ 	c #4A6742",
"( 	c #374739",
"_ 	c #282C32",
": 	c #242631",
"< 	c #272C32",
"[ 	c #292E33",
"} 	c #282E33",
"| 	c #272B32",
"1 	c #252931",
"2 	c #252831",
"3 	c #272B33",
"4 	c #364539",
"5 	c #496541",
"6 	c #5F8A4B",
"7 	c #76B155",
"8 	c #77B155",
"9 	c #567B47",
"0 	c #3E533B",
"a 	c #303C36",
"b 	c #292F33",
"c 	c #2A3033",
"d 	c #334137",
"e 	c #364538",
"f 	c #364638",
"g 	c #354438",
"h 	c #2D3635",
"i 	c #2C3434",
"j 	c #303B37",
"k 	c #4E6D43",
"l 	c #6C9F50",
"m 	c #527344",
"n 	c #344337",
"o 	c #2C3334",
"p 	c #323F36",
"q 	c #364738",
"r 	c #262A32",
"s 	c #486240",
"t 	c #75AF54",
"u 	c #486440",
"v 	c #374839",
"w 	c #334237",
"x 	c #282D33",
"y 	c #2C3435",
"z 	c #374738",
"A 	c #354338",
"B 	c #2B3234",
"C 	c #3C503C",
"D 	c #75AE55",
"E 	c #587D48",
"F 	c #334037",
"G 	c #354538",
"H 	c #313C36",
"I 	c #2A3133",
"J 	c #282D32",
"K 	c #557A47",
"L 	c #39483A",
"M 	c #2A3134",
"N 	c #344138",
"O 	c #72AA53",
"P 	c #78B455",
"Q 	c #65934D",
"R 	c #2E3836",
"S 	c #2C3534",
"T 	c #2B3334",
"U 	c #344237",
"V 	c #2F3936",
"W 	c #63904C",
"X 	c #79B656",
"Y 	c #64924D",
"Z 	c #2A3233",
"` 	c #323E36",
" .	c #2B3134",
"..	c #293033",
"+.	c #5C8549",
"@.	c #5A8148",
"#.	c #313D36",
"$.	c #344137",
"%.	c #577C48",
"&.	c #62904D",
"*.	c #2A3234",
"=.	c #313E37",
"-.	c #323E37",
";.	c #2A2F33",
">.	c #324037",
",.	c #5C854A",
"'.	c #66954E",
").	c #313B36",
"!.	c #2F3935",
"~.	c #2F3A35",
"{.	c #3B4F3A",
"].	c #2B3434",
"^.	c #394C3A",
"/.	c #42583E",
"(.	c #476340",
"_.	c #425A3E",
":.	c #3A4C3A",
"<.	c #374838",
"[.	c #2D3535",
"}.	c #3D513C",
"|.	c #486341",
"1.	c #40563D",
"2.	c #2E3835",
"3.	c #6EA351",
"4.	c #435B3E",
"5.	c #435C3E",
"6.	c #67974E",
"7.	c #7AB756",
"8.	c #68994E",
"9.	c #445D3F",
"0.	c #3E533C",
"a.	c #628F4C",
"b.	c #67964E",
"c.	c #3E523C",
"d.	c #3C4F3C",
"e.	c #5D8749",
"f.	c #7BB45A",
"g.	c #80B760",
"h.	c #4D6D43",
"i.	c #323F37",
"j.	c #425B3E",
"k.	c #77B254",
"l.	c #79B358",
"m.	c #80B761",
"n.	c #7CB55B",
"o.	c #76B254",
"p.	c #496542",
"q.	c #527345",
"r.	c #384A39",
"s.	c #334138",
"t.	c #323D37",
"u.	c #425A3D",
"v.	c #72AF4F",
"w.	c #A0CA88",
"x.	c #E8F2E3",
"y.	c #FAFDF9",
"z.	c #FAFCF8",
"A.	c #E6F1E0",
"B.	c #98C57F",
"C.	c #73B050",
"D.	c #3F553C",
"E.	c #3E543B",
"F.	c #75B153",
"G.	c #92C176",
"H.	c #E3F0DC",
"I.	c #F8FBF6",
"J.	c #FBFDFA",
"K.	c #ECF4E7",
"L.	c #B1D39E",
"M.	c #76B153",
"N.	c #6EA251",
"O.	c #4A6641",
"P.	c #354437",
"Q.	c #2C3535",
"R.	c #65944D",
"S.	c #9EC885",
"T.	c #FFFFFF",
"U.	c #FCFCFC",
"V.	c #FDFDFD",
"W.	c #92C277",
"X.	c #6DA251",
"Y.	c #86BB68",
"Z.	c #F9FCF8",
"`.	c #FAFAFB",
" +	c #A3CB8C",
".+	c #75B152",
"++	c #486340",
"@+	c #6CA050",
"#+	c #394B39",
"$+	c #75AE54",
"%+	c #7AB459",
"&+	c #E5F0DE",
"*+	c #DADBDC",
"=+	c #505458",
"-+	c #53575B",
";+	c #E7E8E9",
">+	c #E0EDD8",
",+	c #4B6A42",
"'+	c #577B47",
")+	c #64934D",
"!+	c #6A9C4F",
"~+	c #6DA151",
"{+	c #6FA451",
"]+	c #689A4F",
"^+	c #5B8349",
"/+	c #476140",
"(+	c #C4DEB5",
"_+	c #F1F1F1",
":+	c #626669",
"<+	c #4F5457",
"[+	c #D4D6D6",
"}+	c #7AB358",
"|+	c #2E3735",
"1+	c #38493A",
"2+	c #7AB856",
"3+	c #7FB65F",
"4+	c #F5F9F2",
"5+	c #565B5E",
"6+	c #282E32",
"7+	c #606467",
"8+	c #F0F7EC",
"9+	c #7EB65E",
"0+	c #6FAE4B",
"a+	c #EFF5EA",
"b+	c #A7AAAB",
"c+	c #262C30",
"d+	c #373C40",
"e+	c #95C37A",
"f+	c #4C6A42",
"g+	c #3D503C",
"h+	c #303B36",
"i+	c #3E523D",
"j+	c #F3F8F0",
"k+	c #676B6F",
"l+	c #252B2F",
"m+	c #22292D",
"n+	c #76797C",
"o+	c #EEF5EA",
"p+	c #7EB65D",
"q+	c #70AE4C",
"r+	c #E9F3E4",
"s+	c #B8BABB",
"t+	c #242A2E",
"u+	c #242A2F",
"v+	c #51565A",
"w+	c #91C075",
"x+	c #517244",
"y+	c #537546",
"z+	c #262B32",
"A+	c #344338",
"B+	c #79B357",
"C+	c #DCEBD3",
"D+	c #FBFBFB",
"E+	c #7B7F81",
"F+	c #828588",
"G+	c #D7E8CD",
"H+	c #77B256",
"I+	c #74B051",
"J+	c #B5D5A2",
"K+	c #909395",
"L+	c #74787A",
"M+	c #F5F6F6",
"N+	c #F6FAF4",
"O+	c #4C6942",
"P+	c #5A8149",
"Q+	c #333F37",
"R+	c #FCFEFB",
"S+	c #7FB760",
"T+	c #7DB65D",
"U+	c #EEF6EA",
"V+	c #8DBE70",
"W+	c #76B154",
"X+	c #3B4E3B",
"Y+	c #2B3233",
"Z+	c #6CA051",
"`+	c #608C4B",
" @	c #82B862",
".@	c #D5E7CB",
"+@	c #EAF3E5",
"@@	c #EAF3E4",
"#@	c #D2E6C7",
"$@	c #CBE1BD",
"%@	c #EBF4E6",
"&@	c #DCECD3",
"*@	c #93C177",
"=@	c #242630",
"-@	c #72A853",
";@	c #3C503B",
">@	c #7CB55C",
",@	c #7BB55B",
"'@	c #303A36",
")@	c #557846",
"!@	c #4E6E43",
"~@	c #435A3D",
"{@	c #476040",
"]@	c #3C4E3B",
"^@	c #4F6E45",
"/@	c #577B48",
"(@	c #344238",
"_@	c #7CBA57",
":@	c #41573E",
"<@	c #465E41",
"[@	c #71A852",
"}@	c #78B356",
"|@	c #354638",
"1@	c #2D3735",
"2@	c #70A552",
"3@	c #38473B",
"4@	c #5D844A",
"5@	c #64904D",
"6@	c #6B9F50",
"7@	c #699B4F",
"8@	c #455E40",
"9@	c #7BB856",
"0@	c #3B4A3C",
"a@	c #374638",
"b@	c #6DA152",
"c@	c #699A4F",
"d@	c #3E513D",
"e@	c #334036",
"f@	c #6DA64B",
"g@	c #619740",
"h@	c #71AA4F",
"i@	c #71AB50",
"j@	c #619841",
"k@	c #6CA44A",
"l@	c #4F6E44",
"m@	c #6FA552",
"n@	c #324036",
"o@	c #629941",
"p@	c #5B903A",
"q@	c #68A046",
"r@	c #6AA248",
"s@	c #5C903B",
"t@	c #5C844A",
"u@	c #313E36",
"v@	c #64914D",
"w@	c #75AF53",
"x@	c #6DA74C",
"y@	c #6EA74C",
"z@	c #74AE52",
"A@	c #65924D",
"B@	c #699950",
"C@	c #66964E",
"D@	c #7AB656",
"E@	c #476240",
"F@	c #65934E",
"G@	c #73AF50",
"H@	c #82B962",
"I@	c #88BE6A",
"J@	c #8CC06E",
"K@	c #8DC06F",
"L@	c #8ABE6B",
"M@	c #83BA64",
"N@	c #71AE4F",
"O@	c #74B052",
"P@	c #354238",
"Q@	c #507144",
"R@	c #262A31",
"S@	c #57764C",
"T@	c #79B555",
"U@	c #7FB75E",
"V@	c #87BD69",
"W@	c #9ECC83",
"X@	c #B3D99D",
"Y@	c #C4E4B1",
"Z@	c #CAE8B8",
"`@	c #CAE7B7",
" #	c #C9E7B7",
".#	c #C9E7B6",
"+#	c #C7E6B4",
"@#	c #B6DAA0",
"##	c #A2CE88",
"$#	c #8ABE6C",
"%#	c #7FB75F",
"&#	c #7BB55A",
"*#	c #60884E",
"=#	c #404C45",
"-#	c #85BF62",
";#	c #97C77C",
">#	c #B0D799",
",#	c #BBDEA5",
"'#	c #C2E3AF",
")#	c #C8E6B5",
"!#	c #C7E6B5",
"~#	c #C7E5B4",
"{#	c #C6E5B3",
"]#	c #C8E7B6",
"^#	c #C4E3B0",
"/#	c #BBDEA7",
"(#	c #B2D89B",
"_#	c #9AC97F",
":#	c #80B860",
"<#	c #74AF51",
"[#	c #617A59",
"}#	c #2F3735",
"|#	c #567A47",
"1#	c #2A3034",
"2#	c #ABCB99",
"3#	c #8FC271",
"4#	c #84BB65",
"5#	c #86BC67",
"6#	c #92C475",
"7#	c #A7D18D",
"8#	c #BFE1AB",
"9#	c #CBE8B9",
"0#	c #C8E6B6",
"a#	c #CBE8B8",
"b#	c #C0E2AC",
"c#	c #A9D290",
"d#	c #93C477",
"e#	c #87BC67",
"f#	c #85BB65",
"g#	c #8CBF6D",
"h#	c #B8DCA2",
"i#	c #4B594C",
"j#	c #81957B",
"k#	c #C6E5B4",
"l#	c #CAE9B7",
"m#	c #A0BA93",
"n#	c #2C3632",
"o#	c #38483A",
"p#	c #333A3B",
"q#	c #C0DEAE",
"r#	c #C2E1B0",
"s#	c #38443C",
"t#	c #5B8248",
"u#	c #272D31",
"v#	c #46504A",
"w#	c #C7E7B4",
"x#	c #C9E8B6",
"y#	c #6D8068",
"z#	c #6B7B68",
"A#	c #C8E7B4",
"B#	c #C6E6B3",
"C#	c #83997A",
"D#	c #2A3430",
"E#	c #505B52",
"F#	c #C5E4B2",
"G#	c #CCECB8",
"H#	c #70846B",
"I#	c #242731",
"J#	c #46504B",
"K#	c #A4BE98",
"L#	c #CAE9B6",
"M#	c #C7E6B3",
"N#	c #CCEBB8",
"O#	c #AEC99F",
"P#	c #546453",
"Q#	c #496441",
"R#	c #2B3135",
"S#	c #59675B",
"T#	c #C0DFAF",
"U#	c #C8E8B5",
"V#	c #C4E2B1",
"W#	c #687A64",
"X#	c #262C31",
"Y#	c #262B30",
"Z#	c #637262",
"`#	c #98B08D",
" $	c #BEDCAD",
".$	c #CEEEB9",
"+$	c #C9E9B6",
"@$	c #C9E8B5",
"#$	c #C2E0AF",
"$$	c #9EB892",
"%$	c #70836A",
"&$	c #344039",
"*$	c #2E3833",
"=$	c #252932",
"-$	c #537545",
";$	c #3A4D3B",
">$	c #4C5750",
",$	c #8BA082",
"'$	c #BBD9AB",
")$	c #C1E0AF",
"!$	c #94AC8A",
"~$	c #5C6C5A",
"{$	c #354039",
"]$	c #3F553D",
"^$	c #23282E",
"/$	c #21252C",
"($	c #313839",
"_$	c #556257",
":$	c #637362",
"<$	c #6E816A",
"[$	c #73866D",
"}$	c #73876E",
"|$	c #6F826A",
"1$	c #5D6E5B",
"2$	c #4F5E4F",
"3$	c #3B473F",
"4$	c #29332F",
"5$	c #2B3531",
"6$	c #2E3934",
"7$	c #6FA652",
"8$	c #2F3835",
"9$	c #6C9F51",
"0$	c #2E3635",
"a$	c #5E894A",
"b$	c #5F894A",
"c$	c #608A4B",
"d$	c #445B3F",
"e$	c #42593E",
"f$	c #70A752",
"g$	c #2D3534",
"h$	c #303935",
"i$	c #323D36",
"j$	c #252832",
"k$	c #4D6B42",
"l$	c #6FA452",
"m$	c #79B456",
"n$	c #73AA53",
"o$	c #455D3F",
"p$	c #41573D",
"q$	c #72AB53",
"r$	c #70A652",
"s$	c #3F543D",
"t$	c #78B255",
"u$	c #374639",
"v$	c #435B3F",
"w$	c #5C8349",
"x$	c #6B9D50",
"                                                      . + @ @ @ @ @ @ + .                                                       ",
"                                            . . . # $ % & * = - ; > , ' ) ! # + . .                                             ",
"                                        . ~ { ] ^ / ( _ : < [ } | 1 2 : 3 4 5 6 ] 7 # .                                         ",
"                                  . . ~ 8 9 0 a } } b c d e f f g h b b b b } } i j k { # . .                                   ",
"                                . ~ l m g n f f o b [ p f f f f f q o b b b b b b b | r s , # .                                 ",
"                            . + t u v e f f f f w x y z f f f f f f A [ b b b b b b b b [ B C D @ .                             ",
"                          . . E F G f f f f f f z [ H q f f f f f f e I b b b b b b b b b b J } K @ +                           ",
"                      . . { L b a f f f f f f f z } a q f f f f f f e M b b b b b b b b b b b b b N O . .                       ",
"                    . P Q R J b S z f f f f f f d x T z f f f f f f U [ b b b b b b b b b b b b b } V W X .                     ",
"                  . ~ Y } b b b } p f f f f f f Z b b ` f f f f f q  .b b b b b b b b b b b b b b b b ..+.. .                   ",
"                . ~ @.| b b } } } b H e z z U S } } } ..#.e z z $.i } } } b b b b b b b b b b b b b b b } %.X .                 ",
"              . P &.| b b *.=.U -.o b b  .;.b o >.U ` B b b M ..b B ` U p T b b b b b b b b b b b b b b b b ,.. .               ",
"              . '.} b b V f f f f q ).< < J H z f f f f !.} b [ ~.f f f f z H b b b J < J b b b b b b b b b ..Y #               ",
"            . 7 {.].b I f f f f f z ^./.(._.:.<.f f f f f i b [.f f f f f f f i c i }.|.1.2.M b b b b b b b b B 3..             ",
"          . . 4.g d x #.q f f G 5.6.. 7.X 7.. 8.9.w f f f H b #.f f f f f f G 0.a.7 7.X 7.~ b.c.1 b b b b b b b d.% .           ",
"          . e.f f e _ d f f G 9.. . f.g.g.f.. . ! h.f f f i.b i.f f f f f G j.{ . k.l.g.m.n.o.7.p.b b b b b b b r q.~           ",
"        . { r.f f s.x t.f f u.. v.w.x.y.z.A.B.C.. 7 D.e f H b #.f f f f f E.{ + F.G.H.I.J.K.L.M.+ L x b b b b b b o N..         ",
"      . ~ O.P.f q Q.[ B q z R.k.S.T.T.U.V.T.T.W.k.@ X.d G S T H ^.r.q G f Q . . Y.Z.T.V.`.T.T. +.+O | b b b b b b } ++X         ",
"      . @+v f z H b b b ~.#+$+%+&+T.*+=+-+;+T.>+l.. # ,+'+)+!+~+{+~+]+^+/+& . C.(+T._+:+<+[+T.T.}+P }.b b b b b b b r @++       ",
"      ~ m U d |+x b b b x 1+2+3+4+T.5+b 6+7+T.8+9+. . X ~ . . . . . . P 7.. . 0+a+T.b+c+6+d+T.T.e+. f+b b b b b b b } g+P .     ",
"    . P } b I h+#.2.b b J i+7.9+j+T.k+l+m+n+T.o+p+. . . . . . . . . . . . . . q+r+T.s+t+u+v+T.T.w+. x+b b b b b b b b h 3..     ",
"    ~ y+z+V z q f q A+M } g 7.B+C+T.D+E+F+T.T.G+H+. . . . . . . . . . . . . . I+J+T.V.K+L+M+T.N+C.. O+b b b b b b b b x P+P     ",
"  . . Q+h f f f f f f g c i ' . Y.T.T.T.T.T.R+S+. . . . . . . . . . . . . . . . T+U+T.T.T.T.T.V+W+@ X+b b b b b b b B Y+4 % .   ",
"  . Z+i d f f f f f f f |+c `+. M. @.@+@@@#@p+k.. . . . . . . . . . . . . . . . o.B+$@x.%@&@*@o.@ 3.z+b b b b b b b !.|+=@-@.   ",
"  . a.x f f f f f f f f h+..;@X . . . >@n.. . . . . . . . . . . . . . . . . . . . . o.,@>@. o.. . t.[ b b b b b b I H '@| )@@   ",
"  # !@x P.f f f f f f f V ..U ~@t . . . . . . . . . . . . . . . . . . . . . . . . . . . . . . P {@b b b b b b b b '@H ).c }.P   ",
"  7.]@} H f f f f f f f i b #.^@P . . . . . . . . . . . . . . . . . . . . . . . . . . . . . . + /@b b b b b b b h H H H  .(@$+. ",
". _@T b M A q f f f z a [ b :@! . . . . . . . . . . . . . . . . . . . . . . . . . . . . . . . . X <@z+b b b b c ).H H H T h+[@. ",
". }@: b b ..` f f |@1@b b B 2@. . . . . . . . . . . . . . . . . . . . . . . . . . . . . . . . . . . 3@b b b b '@H H H H y i N.. ",
"+ 3.Z |+I b } ..M } c |+T 4@X . . . . . . . . . . . . . . . . . . . . . . . . . . . . . . . . . . . 5@J b b h H H H H H h ..6@. ",
"@ 7@F f e o b b b i e f 8@P . . . . . . . . . . . . . . . . . . . . . . . . . . . . . . . . . . . . 9@0@J M H H H H H H |+x !+. ",
"@ 6.d f f a@T b T f f f ^ . . . . . . . . . . . . . . . . . . . . . . . . . . . . . . . . . . . . . @ b@J H H H H H H H |+< c@. ",
"@ 6.d f f f ` b #.f f z & . . . . . . . . . . . . . . . . . . . . . . . . . . . . . . . . . . . . . . . d@H H H H H H H |+| 7@. ",
"@ !+e@f f f d b d f G /.7.. . . . . . . . . . . . + f@g@h@. . . . . . i@j@k@+ . . . . . . . . . . . . . l@H H H H H H H h x !+. ",
"+ m@n@f f f F b F f n /@# . . . . . . . . . . . . }@o@p@q@}@. . . . . r@s@o@}@. . . . . . . . . . . . . t@).H H H H H H y c l . ",
". ~ u@f f f h+b ~.f d v@P . . . . . . . . . . . . . w@x@W+. . . . . . W+y@z@. . . . . . . . . . . . . . A@h+H H H H H H T Q.3.. ",
". ! #+f f g ..b c g d B@@ . . . . . . . . . . . . . . . . . . . . . . . . . . . . . . . . . . . . . . . C@h+H H H H H H  .h+[@. ",
"  D@E@f #.I b b b I 2.F@P . . . . . . . . . . . k..+G@v.}@H@I@J@K@L@M@%+N@G@O@o.. . . . . . . . . . . . F@h+H H H H H ).c P@$+. ",
"  ~ Q@x [ b b b b b R@S@T@. . . . . . . o.o.%+U@V@W@X@Y@Z@`@ #.#.# # #Z@+#@###$#%#&#k.o.. . . . . . . . *#h+H H H H H '@b }.~   ",
"  . W b b b b b b b J =#-#W+. . W+O@v.p+;#>#,#'#)#!#~#{#{#{#{#{#{#{#{#{#{#~#!#]#^#/#(#_#:#G@O@W+. . o.<#[#H H H H H H }#z+|#@   ",
"  . N.h b b b b b b b 1#2#3#4#5#6#7#8#9#0#{#{#{#{#{#{#{#{#{#{#{#{#{#{#{#{#{#{#{#{#{#{#)#a#b#c#d#e#f#g#h#i#H H H H H #.Y+2 [@.   ",
"  . @ $.b b b b b b b b j#)#k#+#!#+#{#{#{#{#{#{#{#{#{#{#{#{#{#{#{#{#{#{#{#{#{#{#{#{#{#{#{#{#+#!#+#{#l#m#n#H H H H H h+} o#! .   ",
"    ~ %.r b b b b b b b p#q#+#{#{#{#{#{#{#{#{#{#{#{#{#{#{#{#{#{#{#{#{#{#{#{#{#{#{#{#{#{#{#{#{#{#{#{#r#s#).H H H H H S x t#P     ",
"    . # M b b b b b b b u#v#w#{#{#{#{#{#{#{#{#{#{#{#{#{#{#{#{#{#{#{#{#{#{#{#{#{#{#{#{#{#{#{#{#{#{#x#y#H H H H H H ).c h 3..     ",
"      P l@b b b b b b b b } z#A#B#{#{#{#{#{#{#{#{#{#{#{#{#{#{#{#{#{#{#{#{#{#{#{#{#{#{#{#{#{#{#{#A#C#D#H H H H H H 2.x c.~ .     ",
"      . 6@T b b b b b b b b 6+E#F#{#{#{#{#{#{#{#{#{#{#{#{#{#{#{#{#{#{#{#{#{#{#{#{#{#{#{#{#{#{#G#H#H H H H H H H H b I#2@+       ",
"      . X 8@| b b b b b b b b u#J#K#L#M#{#{#{#{#{#{#{#{#{#{#{#{#{#{#{#{#{#{#{#{#{#{#{#{#{#N#O#P#D#H H H H H H H S } Q#D@        ",
"        . }@1@b b b b b b b b b b R#S#T#U#{#{#{#{#{#{#{#{#{#{#{#{#{#{#{#{#{#{#{#{#{#{#w#V#W#t.H H H H H H H H ).b Q.~+.         ",
"          . +.[ b b b b b b b b b b X#Y#Z#`# $.$+$+#{#{#{#{#{#{#{#{#{#{#{#{#{#@$G##$$$%$&$*$H H H H H H H H H c =$-$#           ",
"          . # ;$x b b b b b b b b b b b b 1# .>$,$'$U#A#+#+#M#{#{#M#+#+#A#U#)$!$~${$t.H H H H H H H H H H H ].b ]$# .           ",
"            . 7 $.b b b b b b b b b b b b b b u#^$/$($v#_$:$<$[$}$|$W#1$2$3$4$5$6$H H H H H H H H H H H H h [ h 7$.             ",
"              . c@c b b b b b b b b b b b b b b b b b ;.8$H H H H H H H H H H H H H H H H H H H H H H H |+b < 9$@               ",
"              . X W M b b b b b b b b b b b b b b c |+).H H H H H H H H H H H H H H H H H H H H H H H 0$b < a$P .               ",
"                . . b$..b b b b b b b b b b b ..0$#.H H H H H H H H H H H H H H H H H H H H H H H H [.b < - # .                 ",
"                  . X W S b b b b b b b } *.|+).H H H H H H H H H H H H H H H H H H H H H H H H ).T [ < c$# .                   ",
"                    . . ] h b b b b b Y+'@H H H H H H H H H H H H H H H H H H H H H H H H H H '@c b |+X.P .                     ",
"                      . P O d$2 b I '@#.H H H H H H H H H H H H H H H H H H H H H H H H #.'@T b 1 e$f$@ .                       ",
"                          . ! +.|+} c 8$).H H H H H H H H H H H H H H H H H H H H H H h+g$b [ [.9 # .                           ",
"                            . P f$Q@< J c i h$i$H H H H H H H H H H H H H H H #.H |+B b J j$k$l$# .                             ",
"                                . m$n$o$8$} x c g$V '@h+H H H H H H H ).h+'@8$o b } } 2.p$q$# .                                 ",
"                                    . ~ r$`+s$1 r J b c I M B B B B  .I ..b x r 1 g+b$r$# .                                     ",
"                                      . . + 7.t$- o$u$-.8$i M b b c i 2.-.4 v$w$t ! @ . .                                       ",
"                                            . . @ ~ 7 O 2@X.l ] x$l X.m@O 7 ~ @ . .                                             ",
"                                                    . . . . . . . . . . . .                                                     "};
