/* XPM */
static char * C:\Users\HOME\Desktop\GWAY\Core\pow_images\share\pixmaps\argoneum16_xpm[] = {
"16 16 150 2",
"  	c None",
". 	c #65934D",
"+ 	c #5A8148",
"@ 	c #537745",
"# 	c #527445",
"$ 	c #597F48",
"% 	c #618D4B",
"& 	c #6DA051",
"* 	c #41583D",
"= 	c #394B39",
"- 	c #303B36",
"; 	c #354538",
"> 	c #313D36",
", 	c #282E33",
"' 	c #2C3535",
") 	c #364538",
"! 	c #6A9B4F",
"~ 	c #5F894B",
"{ 	c #2C3435",
"] 	c #2F3935",
"^ 	c #324036",
"/ 	c #2E3835",
"( 	c #334137",
"_ 	c #303C36",
": 	c #2A3133",
"< 	c #272C32",
"[ 	c #2C3635",
"} 	c #628F4C",
"| 	c #6FA552",
"1 	c #323F37",
"2 	c #517840",
"3 	c #5A8744",
"4 	c #3B4E3A",
"5 	c #2D3535",
"6 	c #567F43",
"7 	c #4F753F",
"8 	c #292F33",
"9 	c #41573D",
"0 	c #2C3534",
"a 	c #507640",
"b 	c #CDDBC5",
"c 	c #D7E2D3",
"d 	c #679B4B",
"e 	c #476240",
"f 	c #4C6B42",
"g 	c #6A9D4F",
"h 	c #BECFB5",
"i 	c #D3DBCF",
"j 	c #54714A",
"k 	c #292E33",
"l 	c #445D3F",
"m 	c #374739",
"n 	c #323E36",
"o 	c #557E43",
"p 	c #D5E2CE",
"q 	c #E6EEE2",
"r 	c #72AF4E",
"s 	c #77B355",
"t 	c #77B255",
"u 	c #77B254",
"v 	c #C8D7C0",
"w 	c #E6EBE5",
"x 	c #557748",
"y 	c #6FA452",
"z 	c #5B8449",
"A 	c #344237",
"B 	c #354337",
"C 	c #3A4C3A",
"D 	c #77B652",
"E 	c #71AF4D",
"F 	c #77B256",
"G 	c #75B152",
"H 	c #71AE4E",
"I 	c #3C4F3B",
"J 	c #527345",
"K 	c #577C46",
"L 	c #2A3234",
"M 	c #2D3735",
"N 	c #6B9D50",
"O 	c #618C4C",
"P 	c #2C3334",
"Q 	c #445C3F",
"R 	c #598047",
"S 	c #3F543C",
"T 	c #74AE54",
"U 	c #72AC4F",
"V 	c #74B052",
"W 	c #72AE50",
"X 	c #71AC4F",
"Y 	c #7AB757",
"Z 	c #323E37",
"` 	c #303A35",
" .	c #5D874A",
"..	c #293033",
"+.	c #37473A",
"@.	c #76B254",
"#.	c #7BB55A",
"$.	c #95C578",
"%.	c #A4CF8B",
"&.	c #A4D08B",
"*.	c #95C679",
"=.	c #7DB55C",
"-.	c #7CBA57",
";.	c #364339",
">.	c #2E3735",
",.	c #527245",
"'.	c #628E4C",
").	c #2D3336",
"!.	c #9FBF8D",
"~.	c #BFE2A9",
"{.	c #CAE8B8",
"].	c #C9E7B7",
"^.	c #C8E6B5",
"/.	c #C9E7B6",
"(.	c #BEE0A9",
"_.	c #9ABA89",
":.	c #2E3834",
"<.	c #2B3334",
"[.	c #6FA451",
"}.	c #2B3235",
"|.	c #ADC89E",
"1.	c #C5E4B2",
"2.	c #C6E5B3",
"3.	c #B7D3A6",
"4.	c #3E4B41",
"5.	c #313C36",
"6.	c #46603F",
"7.	c #6C9E50",
"8.	c #272D32",
"9.	c #505C53",
"0.	c #6F806C",
"a.	c #83997B",
"b.	c #849A7C",
"c.	c #74886E",
"d.	c #576756",
"e.	c #2E3833",
"f.	c #303B35",
"g.	c #63914C",
"h.	c #64924D",
"i.	c #2B3234",
"j.	c #66954E",
"k.	c #63904D",
"l.	c #476140",
"m.	c #2E3635",
"n.	c #2D3634",
"o.	c #72A853",
"p.	c #547746",
"q.	c #465F40",
"r.	c #547645",
"s.	c #70A752",
"          . + @ # $ %           ",
"      & * = - ; > , ' ) !       ",
"    ~ { ] ^ / ( _ : < < [ }     ",
"  | 1 ^ 2 3 4 5 ) ; 6 7 8 ' %   ",
"  9 0 a b c d e f g h i j k l   ",
"} m n o p q r s t u v w x k < y ",
"z A B C D E F t t t G H I 8 5 J ",
"K L M N s t t t t t t t O P - Q ",
"R _ S T t t U V W X t t Y Z ` Q ",
" ...+.T @.#.$.%.&.*.=.u -.;.>.,.",
"'.5 ).!.~.{.].^.^./.].(._.:.<.[.",
"  m , }.|.1.2.2.2.2.2.3.4.5.6.  ",
"  7.>., 8.9.0.a.b.c.d.e.f.>.g.  ",
"    h.5 8 i.` f.f.5.5.5.>.j.    ",
"      k.l.P m.` ` n.P l.h.      ",
"          o.p.q.q.r.s.          "};
