/* XPM */
static char * argoneum16_xpm[] = {
"16 16 118 2",
"  	c None",
". 	c #7184AC",
"+ 	c #4B6294",
"@ 	c #465F94",
"# 	c #455E93",
"$ 	c #465F93",
"% 	c #476094",
"& 	c #476095",
"* 	c #516899",
"= 	c #465E90",
"- 	c #7486AB",
"; 	c #3F588E",
"> 	c #4F679A",
", 	c #4F6699",
"' 	c #4D6598",
") 	c #6377A1",
"! 	c #7486AF",
"~ 	c #7E8DB0",
"{ 	c #476096",
"] 	c #435B8C",
"^ 	c #51699A",
"/ 	c #4A6191",
"( 	c #455E94",
"_ 	c #466095",
": 	c #3B548A",
"< 	c #4A6296",
"[ 	c #7C8BAB",
"} 	c #435D93",
"| 	c #445C8E",
"1 	c #425B92",
"2 	c #7383A8",
"3 	c #A2AEC7",
"4 	c #66789D",
"5 	c #4B6396",
"6 	c #E2E6EF",
"7 	c #B1B9CB",
"8 	c #FFFFFF",
"9 	c #A3AEC5",
"0 	c #5C719F",
"a 	c #445D93",
"b 	c #445C8F",
"c 	c #3E588E",
"d 	c #3D588F",
"e 	c #FDFDFE",
"f 	c #A7B0C3",
"g 	c #D2D7DF",
"h 	c #B1BACE",
"i 	c #405A90",
"j 	c #8091B5",
"k 	c #8392B1",
"l 	c #576E9D",
"m 	c #ECEEF2",
"n 	c #BFC4CE",
"o 	c #99A3BA",
"p 	c #99A4BB",
"q 	c #C7CDD9",
"r 	c #A8B2C6",
"s 	c #445D92",
"t 	c #385187",
"u 	c #A3ACBE",
"v 	c #6B7998",
"w 	c #3C578F",
"x 	c #5F75A3",
"y 	c #697EA8",
"z 	c #ECEFF4",
"A 	c #4B6291",
"B 	c #445E93",
"C 	c #8F9CB8",
"D 	c #F0F2F6",
"E 	c #C1C6D0",
"F 	c #3B568E",
"G 	c #DDE1EB",
"H 	c #E7E8EA",
"I 	c #EFF0F2",
"J 	c #8492AF",
"K 	c #9FA9BD",
"L 	c #586E9E",
"M 	c #3B517E",
"N 	c #3E588F",
"O 	c #94A2BF",
"P 	c #909CB5",
"Q 	c #476196",
"R 	c #556A97",
"S 	c #C4CAD5",
"T 	c #3C568E",
"U 	c #D8DCE5",
"V 	c #F6F8FA",
"W 	c #5F729B",
"X 	c #99A6C3",
"Y 	c #7080A1",
"Z 	c #3F5990",
"` 	c #E1E5EC",
" .	c #7284A8",
"..	c #3B558C",
"+.	c #576B95",
"@.	c #40598E",
"#.	c #9BA8C5",
"$.	c #F3F3F4",
"%.	c #3C5487",
"&.	c #5B719D",
"*.	c #C4CCDB",
"=.	c #9FACC7",
"-.	c #C1C9DA",
";.	c #637395",
">.	c #486196",
",.	c #445B8E",
"'.	c #566B99",
").	c #CFD3DD",
"!.	c #D8DAE0",
"~.	c #5B6C92",
"{.	c #415889",
"].	c #465E93",
"^.	c #445B8B",
"/.	c #5B6F97",
"(.	c #455B8A",
"_.	c #455D91",
":.	c #435A8C",
"<.	c #435B8D",
"      . + @ # @ @ @ @ $ $       ",
"  % & * = & - ; @ & & & & & $   ",
"  & > , & ' ) ! ~ { & & & & & ] ",
"@ & ^ / ( _ : < [ } & & & & & | ",
"$ 1 2 3 4 5 6 7 8 9 0 a & & & b ",
"@ @ c d e 8 f g 8 8 8 h i & & b ",
"@ j k l m 8 8 n o p q 8 r ( & b ",
"@ s t 8 u 8 v w x y z 8 8 A & b ",
"@ & B C D E F G 8 H I 8 8 J { b ",
"@ & ' 8 8 K L 8 M N O 8 8 P Q b ",
"@ & { R 8 S T U V W X 8 8 Y & b ",
"$ & & Z ` 8  ...+.@.#.8 $.%.& b ",
"$ & & & &.8 8 *.=.-.8 8 ;.>.& ,.",
"  & & & & '.).8 8 8 !.~.{ & & {.",
"  ].& & & & 1 ^./.(.; Q & & _.  ",
"    :.| b | | | | | | | <.{.    "};
